<!--?xml version="1.0" encoding="UTF-8" standalone="no"?-->

<svg width="512" height="70" viewBox="0 0 512 70" version="1.1" xmlns="http://www.w3.org/2000/svg" xmlns:xlink="http://www.w3.org/1999/xlink" fill="none" stroke="white" style="stroke-linejoin: round; stroke-miterlimit: 1.5;">
    <g transform="matrix(0.999368,0,0,0.999368,0.311091,-0.132805)">
        <path d="M63.033,16.296C63.033,16.296 54.252,1.414 34.62,1.484C15.475,1.553 1.28,18.351 1.28,35.039C1.28,51.728 14.523,68.821 34.79,68.749C54.768,68.679 63.033,53.992 63.033,53.992" style="stroke-width:3px;" class="XUKAWrYg_0"></path>
    </g>
    <g transform="matrix(0.821545,0,0,0.821545,6.4615,6.10663)">
        <path d="M63.033,16.296C63.033,16.296 54.252,1.414 34.62,1.484C15.475,1.553 1.28,18.351 1.28,35.039C1.28,51.728 14.523,68.821 34.79,68.749C54.768,68.679 63.033,53.992 63.033,53.992" style="stroke-width:3.65px;" class="XUKAWrYg_1"></path>
    </g>
    <g transform="matrix(0.648957,0,0,0.648957,12.5517,12.2307)">
        <path d="M63.033,16.296C63.033,16.296 54.252,1.414 34.62,1.484C15.475,1.553 1.28,18.351 1.28,35.039C1.28,51.728 14.523,68.821 34.79,68.749C54.768,68.679 63.033,53.992 63.033,53.992" style="stroke-width:4.62px;" class="XUKAWrYg_2"></path>
    </g>
    <g transform="matrix(0.47475,0,0,0.47475,18.6226,18.3797)">
        <path d="M63.033,16.296C63.033,16.296 54.252,1.414 34.62,1.484C15.475,1.553 1.28,18.351 1.28,35.039C1.28,51.728 14.523,68.821 34.79,68.749C54.768,68.679 63.033,53.992 63.033,53.992" style="stroke-width:6.32px;" class="XUKAWrYg_3"></path>
    </g>
    <g transform="matrix(1.09045,0,0,1.09045,-2.6178,-3.33134)">
        <path d="M71.056,65.94L71.056,4.286L107.711,4.286C107.711,4.286 129.619,4.792 129.619,26.07C129.619,47.348 105.876,47.936 105.876,47.936L90.363,47.992" style="stroke-width:2.75px;stroke-linecap:square;stroke-linejoin:miter;" class="XUKAWrYg_4"></path>
    </g>
    <g transform="matrix(0.889836,0,0,0.889836,17.5112,3.71274)">
        <path d="M71.502,72.891L71.229,4.286L107.711,4.286C107.711,4.286 129.454,3.203 129.454,24.481C129.454,43.765 105.72,44.25 105.72,44.25L88.204,44.316" style="stroke-width:3.37px;stroke-linecap:square;stroke-linejoin:miter;" class="XUKAWrYg_5"></path>
    </g>
    <g transform="matrix(0.670133,0,0,0.670133,39.4896,10.8782)">
        <path d="M71.229,86.095L71.229,4.286L107.711,4.286C107.711,4.286 129.722,3.237 129.722,21.052C129.722,38.866 106.692,38.83 106.692,38.83L84.312,38.896" style="stroke-width:4.48px;stroke-linecap:square;stroke-linejoin:miter;" class="XUKAWrYg_6"></path>
    </g>
    <g transform="matrix(0.460761,0,0,0.460761,60.45,17.9482)">
        <path d="M71.229,109.873L71.229,4.286L107.711,4.286C107.711,4.286 129.285,3.85 129.333,15.024C129.385,27.241 108.087,26.997 108.087,26.997L77.046,27.082" style="stroke-width:6.51px;stroke-linecap:square;stroke-linejoin:miter;" class="XUKAWrYg_7"></path>
    </g>
    <g transform="matrix(1.09045,0,0,1.09045,-2.6178,-3.33134)">
        <path d="M103.015,50.376L108.736,67.134" style="stroke-width:2.75px;stroke-linecap:square;stroke-linejoin:miter;" class="XUKAWrYg_8"></path>
    </g>
    <g transform="matrix(1.09045,0,0,1.09045,3.71946,-3.33134)">
        <path d="M102.724,49.521L108.736,67.134" style="stroke-width:2.75px;stroke-linecap:square;stroke-linejoin:miter;" class="XUKAWrYg_9"></path>
    </g>
    <g transform="matrix(1.15031,0,0,1.15031,3.59607,-7.27827)">
        <path d="M102.644,49.285L108.695,67.071" style="stroke-width:2.61px;stroke-linecap:square;stroke-linejoin:miter;" class="XUKAWrYg_10"></path>
    </g>
    <g transform="matrix(1.30912,0,0,1.30912,-7.87751,-17.7504)">
        <path d="M103.015,50.376L108.604,66.934" style="stroke-width:2.29px;stroke-linecap:square;stroke-linejoin:miter;" class="XUKAWrYg_11"></path>
    </g>
    <g transform="matrix(1.09045,0,0,1.09045,-2.6178,-3.33134)">
        <path d="M136.347,67.683L161.914,3.521L187.816,67.682" style="stroke-width:2.75px;stroke-linecap:square;stroke-linejoin:bevel;" class="XUKAWrYg_12"></path>
    </g>
    <g transform="matrix(1.09045,0,0,1.09045,3.9249,-3.33134)">
        <path d="M161.914,3.521L187.816,67.682" style="stroke-width:2.75px;stroke-linecap:square;stroke-linejoin:bevel;" class="XUKAWrYg_13"></path>
    </g>
    <g transform="matrix(1.09045,0,0,1.09045,10.4676,-3.33134)">
        <path d="M161.914,3.521L187.816,67.682" style="stroke-width:2.75px;stroke-linecap:square;stroke-linejoin:bevel;" class="XUKAWrYg_14"></path>
    </g>
    <g transform="matrix(1.09045,0,0,1.09045,17.0103,-3.33134)">
        <path d="M161.914,3.521L187.816,67.682" style="stroke-width:2.75px;stroke-linecap:square;stroke-linejoin:bevel;" class="XUKAWrYg_15"></path>
    </g>
    <g transform="matrix(1.09045,0,0,1.09045,-2.6178,-3.33134)">
        <path d="M142.364,68.158L164.241,11.941" style="stroke-width:2.75px;stroke-linecap:square;stroke-linejoin:bevel;" class="XUKAWrYg_16"></path>
    </g>
    <g transform="matrix(1.09045,0,0,1.09045,3.9249,-3.33134)">
        <path d="M142.364,68.158L161.42,18.992" style="stroke-width:2.75px;stroke-linecap:square;stroke-linejoin:bevel;" class="XUKAWrYg_17"></path>
    </g>
    <g transform="matrix(1.09045,0,0,1.09045,10.4676,-3.33134)">
        <path d="M142.364,68.158L158.598,26.695" style="stroke-width:2.75px;stroke-linecap:square;stroke-linejoin:bevel;" class="XUKAWrYg_18"></path>
    </g>
    <g transform="matrix(1.09045,0,0,1.09045,-2.53711,-2.95841)">
        <path d="M163.125,46.826L178.975,46.826" style="stroke-width:2.75px;stroke-linecap:square;stroke-linejoin:bevel;" class="XUKAWrYg_19"></path>
    </g>
    <g transform="matrix(1.28676,0,0,1.09045,-35.6575,3.11735)">
        <path d="M163.125,46.826L178.975,46.826" style="stroke-width:2.52px;stroke-linecap:square;stroke-linejoin:bevel;" class="XUKAWrYg_20"></path>
    </g>
    <g transform="matrix(1.62193,0,0,1.09045,-93.8472,9.21239)">
        <path d="M163.125,46.826L178.975,46.826" style="stroke-width:2.17px;stroke-linecap:square;stroke-linejoin:bevel;" class="XUKAWrYg_21"></path>
    </g>
    <g transform="matrix(1.09045,0,0,1.09045,-2.6178,-3.33134)">
        <path d="M213.627,4.393L213.627,65.98" style="stroke-width:2.75px;stroke-linecap:square;stroke-linejoin:bevel;" class="XUKAWrYg_22"></path>
    </g>
    <g transform="matrix(1.09045,0,0,1.09045,3.17436,-3.33134)">
        <path d="M213.627,4.393L213.627,65.98" style="stroke-width:2.75px;stroke-linecap:square;stroke-linejoin:bevel;" class="XUKAWrYg_23"></path>
    </g>
    <g transform="matrix(1.09045,0,0,1.09045,9.63337,-3.35191)">
        <path d="M213.627,4.393L213.627,65.98" style="stroke-width:2.75px;stroke-linecap:square;stroke-linejoin:bevel;" class="XUKAWrYg_24"></path>
    </g>
    <g transform="matrix(1.09045,0,0,1.09045,15.4801,-3.41223)">
        <path d="M213.627,4.393L213.627,65.98" style="stroke-width:2.75px;stroke-linecap:square;stroke-linejoin:bevel;" class="XUKAWrYg_25"></path>
    </g>
    <g transform="matrix(1.09045,0,0,1.09045,-2.6178,-3.23502)">
        <path d="M230.487,4.191L258.538,4.191" style="stroke-width:2.75px;stroke-linecap:square;stroke-linejoin:bevel;" class="XUKAWrYg_26"></path>
    </g>
    <g transform="matrix(1.09045,0,0,1.09045,-2.6178,2.99676)">
        <path d="M230.487,4.191L258.538,4.191" style="stroke-width:2.75px;stroke-linecap:square;stroke-linejoin:bevel;" class="XUKAWrYg_27"></path>
    </g>
    <g transform="matrix(1.09045,0,0,1.09045,-2.6178,8.93293)">
        <path d="M230.487,4.191L258.538,4.191" style="stroke-width:2.75px;stroke-linecap:square;stroke-linejoin:bevel;" class="XUKAWrYg_28"></path>
    </g>
    <g transform="matrix(1.09045,0,0,1.09045,-2.6178,27.2976)">
        <path d="M230.487,4.191L258.538,4.191" style="stroke-width:2.75px;stroke-linecap:square;stroke-linejoin:bevel;" class="XUKAWrYg_29"></path>
    </g>
    <g transform="matrix(1.09045,0,0,1.09045,-2.6178,33.5294)">
        <path d="M230.487,4.191L258.538,4.191" style="stroke-width:2.75px;stroke-linecap:square;stroke-linejoin:bevel;" class="XUKAWrYg_30"></path>
    </g>
    <g transform="matrix(1.09045,0,0,1.09045,-2.6178,39.4655)">
        <path d="M230.487,4.191L258.538,4.191" style="stroke-width:2.75px;stroke-linecap:square;stroke-linejoin:bevel;" class="XUKAWrYg_31"></path>
    </g>
    <g transform="matrix(1.5189,0,0,1.09045,-61.5193,-3.23502)">
        <path d="M230.487,4.191L258.538,4.191" style="stroke-width:2.27px;stroke-linecap:square;stroke-linejoin:bevel;" class="XUKAWrYg_32"></path>
    </g>
    <g transform="matrix(1.5189,0,0,1.09045,-61.5193,2.99676)">
        <path d="M230.487,4.191L258.538,4.191" style="stroke-width:2.27px;stroke-linecap:square;stroke-linejoin:bevel;" class="XUKAWrYg_33"></path>
    </g>
    <g transform="matrix(1.5189,0,0,1.09045,-61.5193,8.93293)">
        <path d="M230.487,4.191L258.538,4.191" style="stroke-width:2.27px;stroke-linecap:square;stroke-linejoin:bevel;" class="XUKAWrYg_34"></path>
    </g>
    <g transform="matrix(1.09045,0,0,0.874825,67.7788,10.8958)">
        <path d="M213.627,4.393L213.627,65.98" style="stroke-width:3.03px;stroke-linecap:square;stroke-linejoin:bevel;" class="XUKAWrYg_35"></path>
    </g>
    <g transform="matrix(1.09045,0,0,0.874825,73.571,10.8958)">
        <path d="M213.627,4.393L213.627,65.98" style="stroke-width:3.03px;stroke-linecap:square;stroke-linejoin:bevel;" class="XUKAWrYg_36"></path>
    </g>
    <g transform="matrix(1.09045,0,0,0.874825,80.03,10.8792)">
        <path d="M213.627,4.393L213.627,65.98" style="stroke-width:3.03px;stroke-linecap:square;stroke-linejoin:bevel;" class="XUKAWrYg_37"></path>
    </g>
    <g transform="matrix(1.09045,0,0,0.874825,85.8768,10.8309)">
        <path d="M213.627,4.393L213.627,65.98" style="stroke-width:3.03px;stroke-linecap:square;stroke-linejoin:bevel;" class="XUKAWrYg_38"></path>
    </g>
    <g transform="matrix(1.09045,0,0,1.0953,108.443,-3.62578)">
        <path d="M213.627,4.393L213.627,65.98" style="stroke-width:2.75px;stroke-linecap:square;stroke-linejoin:bevel;" class="XUKAWrYg_39"></path>
    </g>
    <g transform="matrix(1.09045,0,0,1.0953,114.236,-3.62578)">
        <path d="M213.627,4.393L213.627,65.98" style="stroke-width:2.75px;stroke-linecap:square;stroke-linejoin:bevel;" class="XUKAWrYg_40"></path>
    </g>
    <g transform="matrix(1.09045,0,0,1.0953,120.695,-3.64645)">
        <path d="M213.627,4.393L213.627,65.98" style="stroke-width:2.75px;stroke-linecap:square;stroke-linejoin:bevel;" class="XUKAWrYg_41"></path>
    </g>
    <g transform="matrix(1.09045,0,0,1.0953,126.541,-3.70703)">
        <path d="M213.627,4.393L213.627,65.98" style="stroke-width:2.75px;stroke-linecap:square;stroke-linejoin:bevel;" class="XUKAWrYg_42"></path>
    </g>
    <g transform="matrix(1.09045,0,0,1.09045,-2.6178,-3.33134)">
        <path d="M342.61,65.997L342.592,2.796L382.407,67.008" style="stroke-width:2.75px;stroke-linecap:square;stroke-linejoin:bevel;" class="XUKAWrYg_43"></path>
    </g>
    <g transform="matrix(1.09045,0,0,1.09045,4.49719,-3.33134)">
        <path d="M342.592,2.796L382.407,67.008" style="stroke-width:2.75px;stroke-linecap:square;stroke-linejoin:bevel;" class="XUKAWrYg_44"></path>
    </g>
    <g transform="matrix(1.09045,0,0,1.09045,11.8779,-3.33134)">
        <path d="M342.592,2.796L382.407,67.008" style="stroke-width:2.75px;stroke-linecap:square;stroke-linejoin:bevel;" class="XUKAWrYg_45"></path>
    </g>
    <g transform="matrix(-1.09045,-1.33542e-16,1.33542e-16,-1.09045,809.685,73.3654)">
        <path d="M342.61,65.997L342.592,2.796L382.407,67.008" style="stroke-width:2.75px;stroke-linecap:square;stroke-linejoin:bevel;" class="XUKAWrYg_46"></path>
    </g>
    <g transform="matrix(1.09045,0,0,0.932185,144.1,7.13636)">
        <path d="M213.627,4.393L213.627,65.98" style="stroke-width:2.96px;stroke-linecap:square;stroke-linejoin:bevel;" class="XUKAWrYg_47"></path>
    </g>
    <g transform="matrix(1.09045,0,0,0.773184,149.892,17.6273)">
        <path d="M213.627,4.393L213.627,65.98" style="stroke-width:3.17px;stroke-linecap:square;stroke-linejoin:bevel;" class="XUKAWrYg_48"></path>
    </g>
    <g transform="matrix(1.09045,0,0,0.620606,156.351,27.6769)">
        <path d="M213.627,4.393L213.627,65.98" style="stroke-width:3.38px;stroke-linecap:square;stroke-linejoin:bevel;" class="XUKAWrYg_49"></path>
    </g>
    <g transform="matrix(-1.09045,0,0,-0.932185,663.055,62.9137)">
        <path d="M213.627,4.393L213.627,65.98" style="stroke-width:2.96px;stroke-linecap:square;stroke-linejoin:bevel;" class="XUKAWrYg_50"></path>
    </g>
    <g transform="matrix(-1.09045,0,0,-0.773184,657.263,52.4227)">
        <path d="M213.627,4.393L213.627,65.98" style="stroke-width:3.17px;stroke-linecap:square;stroke-linejoin:bevel;" class="XUKAWrYg_51"></path>
    </g>
    <g transform="matrix(-1.09045,0,0,-0.620606,650.804,42.3731)">
        <path d="M213.627,4.393L213.627,65.98" style="stroke-width:3.38px;stroke-linecap:square;stroke-linejoin:bevel;" class="XUKAWrYg_52"></path>
    </g>
    <g transform="matrix(0.999368,0,0,0.999368,444.124,-0.132805)">
        <path d="M63.033,16.296C63.033,16.296 54.252,1.414 34.62,1.484C15.475,1.553 1.28,18.351 1.28,35.039C1.28,51.728 14.523,68.821 34.79,68.749C40.264,68.73 44.858,67.614 48.644,66.003" style="stroke-width:3px;" class="XUKAWrYg_53"></path>
    </g>
    <g transform="matrix(0.821545,0,0,0.821545,450.275,6.10663)">
        <path d="M63.033,16.296C63.033,16.296 54.252,1.414 34.62,1.484C15.475,1.553 1.28,18.351 1.28,35.039C1.28,51.728 14.523,68.821 34.79,68.749C41.55,68.726 46.969,67.028 51.18,64.793" style="stroke-width:3.65px;" class="XUKAWrYg_54"></path>
    </g>
    <g transform="matrix(0.648957,0,0,0.648957,456.365,12.2307)">
        <path d="M63.033,16.296C63.033,16.296 54.252,1.414 34.62,1.484C15.475,1.553 1.28,18.351 1.28,35.039C1.28,51.728 14.523,68.821 34.79,68.749C43.871,68.717 50.532,65.665 55.097,62.346" style="stroke-width:4.62px;" class="XUKAWrYg_55"></path>
    </g>
    <g transform="matrix(0.47475,0,0,0.47475,462.436,18.3797)">
        <path d="M63.033,16.296C63.033,16.296 54.252,1.414 34.62,1.484C15.475,1.553 1.28,18.351 1.28,35.039C1.28,51.728 14.523,68.821 34.79,68.749C54.768,68.679 63.033,53.992 63.033,53.992" style="stroke-width:6.32px;" class="XUKAWrYg_56"></path>
    </g>
    <g transform="matrix(1.09045,0,0,0.546582,259.65,32.5533)">
        <path d="M213.627,4.393L213.627,65.98" style="stroke-width:3.48px;stroke-linecap:square;stroke-linejoin:bevel;" class="XUKAWrYg_57"></path>
    </g>
    <g transform="matrix(1.09045,0,0,0.546582,265.442,32.5533)">
        <path d="M213.627,4.393L213.627,65.98" style="stroke-width:3.48px;stroke-linecap:square;stroke-linejoin:bevel;" class="XUKAWrYg_58"></path>
    </g>
    <g transform="matrix(1.09045,0,0,0.546582,271.901,32.543)">
        <path d="M213.627,4.393L213.627,65.98" style="stroke-width:3.48px;stroke-linecap:square;stroke-linejoin:bevel;" class="XUKAWrYg_59"></path>
    </g>
    <g transform="matrix(1.09045,0,0,0.546582,277.748,32.5128)">
        <path d="M213.627,4.393L213.627,65.98" style="stroke-width:3.48px;stroke-linecap:square;stroke-linejoin:bevel;" class="XUKAWrYg_60"></path>
    </g>
<style>.XUKAWrYg_0{stroke-dasharray:172 174;stroke-dashoffset:173;animation:XUKAWrYg_draw 800ms ease-in-out 0ms forwards;}.XUKAWrYg_1{stroke-dasharray:172 174;stroke-dashoffset:173;animation:XUKAWrYg_draw 800ms ease-in-out 6ms forwards;}.XUKAWrYg_2{stroke-dasharray:172 174;stroke-dashoffset:173;animation:XUKAWrYg_draw 800ms ease-in-out 13ms forwards;}.XUKAWrYg_3{stroke-dasharray:172 174;stroke-dashoffset:173;animation:XUKAWrYg_draw 800ms ease-in-out 20ms forwards;}.XUKAWrYg_4{stroke-dasharray:185 187;stroke-dashoffset:186;animation:XUKAWrYg_draw 800ms ease-in-out 26ms forwards;}.XUKAWrYg_5{stroke-dasharray:191 193;stroke-dashoffset:192;animation:XUKAWrYg_draw 800ms ease-in-out 33ms forwards;}.XUKAWrYg_6{stroke-dasharray:205 207;stroke-dashoffset:206;animation:XUKAWrYg_draw 800ms ease-in-out 40ms forwards;}.XUKAWrYg_7{stroke-dasharray:227 229;stroke-dashoffset:228;animation:XUKAWrYg_draw 800ms ease-in-out 46ms forwards;}.XUKAWrYg_8{stroke-dasharray:18 20;stroke-dashoffset:19;animation:XUKAWrYg_draw 800ms ease-in-out 53ms forwards;}.XUKAWrYg_9{stroke-dasharray:19 21;stroke-dashoffset:20;animation:XUKAWrYg_draw 800ms ease-in-out 60ms forwards;}.XUKAWrYg_10{stroke-dasharray:19 21;stroke-dashoffset:20;animation:XUKAWrYg_draw 800ms ease-in-out 66ms forwards;}.XUKAWrYg_11{stroke-dasharray:18 20;stroke-dashoffset:19;animation:XUKAWrYg_draw 800ms ease-in-out 73ms forwards;}.XUKAWrYg_12{stroke-dasharray:139 141;stroke-dashoffset:140;animation:XUKAWrYg_draw 800ms ease-in-out 80ms forwards;}.XUKAWrYg_13{stroke-dasharray:70 72;stroke-dashoffset:71;animation:XUKAWrYg_draw 800ms ease-in-out 86ms forwards;}.XUKAWrYg_14{stroke-dasharray:70 72;stroke-dashoffset:71;animation:XUKAWrYg_draw 800ms ease-in-out 93ms forwards;}.XUKAWrYg_15{stroke-dasharray:70 72;stroke-dashoffset:71;animation:XUKAWrYg_draw 800ms ease-in-out 100ms forwards;}.XUKAWrYg_16{stroke-dasharray:61 63;stroke-dashoffset:62;animation:XUKAWrYg_draw 800ms ease-in-out 106ms forwards;}.XUKAWrYg_17{stroke-dasharray:53 55;stroke-dashoffset:54;animation:XUKAWrYg_draw 800ms ease-in-out 113ms forwards;}.XUKAWrYg_18{stroke-dasharray:45 47;stroke-dashoffset:46;animation:XUKAWrYg_draw 800ms ease-in-out 120ms forwards;}.XUKAWrYg_19{stroke-dasharray:16 18;stroke-dashoffset:17;animation:XUKAWrYg_draw 800ms ease-in-out 126ms forwards;}.XUKAWrYg_20{stroke-dasharray:16 18;stroke-dashoffset:17;animation:XUKAWrYg_draw 800ms ease-in-out 133ms forwards;}.XUKAWrYg_21{stroke-dasharray:16 18;stroke-dashoffset:17;animation:XUKAWrYg_draw 800ms ease-in-out 140ms forwards;}.XUKAWrYg_22{stroke-dasharray:62 64;stroke-dashoffset:63;animation:XUKAWrYg_draw 800ms ease-in-out 146ms forwards;}.XUKAWrYg_23{stroke-dasharray:62 64;stroke-dashoffset:63;animation:XUKAWrYg_draw 800ms ease-in-out 153ms forwards;}.XUKAWrYg_24{stroke-dasharray:62 64;stroke-dashoffset:63;animation:XUKAWrYg_draw 800ms ease-in-out 160ms forwards;}.XUKAWrYg_25{stroke-dasharray:62 64;stroke-dashoffset:63;animation:XUKAWrYg_draw 800ms ease-in-out 166ms forwards;}.XUKAWrYg_26{stroke-dasharray:29 31;stroke-dashoffset:30;animation:XUKAWrYg_draw 800ms ease-in-out 173ms forwards;}.XUKAWrYg_27{stroke-dasharray:29 31;stroke-dashoffset:30;animation:XUKAWrYg_draw 800ms ease-in-out 180ms forwards;}.XUKAWrYg_28{stroke-dasharray:29 31;stroke-dashoffset:30;animation:XUKAWrYg_draw 800ms ease-in-out 186ms forwards;}.XUKAWrYg_29{stroke-dasharray:29 31;stroke-dashoffset:30;animation:XUKAWrYg_draw 800ms ease-in-out 193ms forwards;}.XUKAWrYg_30{stroke-dasharray:29 31;stroke-dashoffset:30;animation:XUKAWrYg_draw 800ms ease-in-out 200ms forwards;}.XUKAWrYg_31{stroke-dasharray:29 31;stroke-dashoffset:30;animation:XUKAWrYg_draw 800ms ease-in-out 206ms forwards;}.XUKAWrYg_32{stroke-dasharray:29 31;stroke-dashoffset:30;animation:XUKAWrYg_draw 800ms ease-in-out 213ms forwards;}.XUKAWrYg_33{stroke-dasharray:29 31;stroke-dashoffset:30;animation:XUKAWrYg_draw 800ms ease-in-out 220ms forwards;}.XUKAWrYg_34{stroke-dasharray:29 31;stroke-dashoffset:30;animation:XUKAWrYg_draw 800ms ease-in-out 226ms forwards;}.XUKAWrYg_35{stroke-dasharray:62 64;stroke-dashoffset:63;animation:XUKAWrYg_draw 800ms ease-in-out 233ms forwards;}.XUKAWrYg_36{stroke-dasharray:62 64;stroke-dashoffset:63;animation:XUKAWrYg_draw 800ms ease-in-out 240ms forwards;}.XUKAWrYg_37{stroke-dasharray:62 64;stroke-dashoffset:63;animation:XUKAWrYg_draw 800ms ease-in-out 246ms forwards;}.XUKAWrYg_38{stroke-dasharray:62 64;stroke-dashoffset:63;animation:XUKAWrYg_draw 800ms ease-in-out 253ms forwards;}.XUKAWrYg_39{stroke-dasharray:62 64;stroke-dashoffset:63;animation:XUKAWrYg_draw 800ms ease-in-out 260ms forwards;}.XUKAWrYg_40{stroke-dasharray:62 64;stroke-dashoffset:63;animation:XUKAWrYg_draw 800ms ease-in-out 266ms forwards;}.XUKAWrYg_41{stroke-dasharray:62 64;stroke-dashoffset:63;animation:XUKAWrYg_draw 800ms ease-in-out 273ms forwards;}.XUKAWrYg_42{stroke-dasharray:62 64;stroke-dashoffset:63;animation:XUKAWrYg_draw 800ms ease-in-out 280ms forwards;}.XUKAWrYg_43{stroke-dasharray:139 141;stroke-dashoffset:140;animation:XUKAWrYg_draw 800ms ease-in-out 286ms forwards;}.XUKAWrYg_44{stroke-dasharray:76 78;stroke-dashoffset:77;animation:XUKAWrYg_draw 800ms ease-in-out 293ms forwards;}.XUKAWrYg_45{stroke-dasharray:76 78;stroke-dashoffset:77;animation:XUKAWrYg_draw 800ms ease-in-out 300ms forwards;}.XUKAWrYg_46{stroke-dasharray:139 141;stroke-dashoffset:140;animation:XUKAWrYg_draw 800ms ease-in-out 306ms forwards;}.XUKAWrYg_47{stroke-dasharray:62 64;stroke-dashoffset:63;animation:XUKAWrYg_draw 800ms ease-in-out 313ms forwards;}.XUKAWrYg_48{stroke-dasharray:62 64;stroke-dashoffset:63;animation:XUKAWrYg_draw 800ms ease-in-out 320ms forwards;}.XUKAWrYg_49{stroke-dasharray:62 64;stroke-dashoffset:63;animation:XUKAWrYg_draw 800ms ease-in-out 326ms forwards;}.XUKAWrYg_50{stroke-dasharray:62 64;stroke-dashoffset:63;animation:XUKAWrYg_draw 800ms ease-in-out 333ms forwards;}.XUKAWrYg_51{stroke-dasharray:62 64;stroke-dashoffset:63;animation:XUKAWrYg_draw 800ms ease-in-out 340ms forwards;}.XUKAWrYg_52{stroke-dasharray:62 64;stroke-dashoffset:63;animation:XUKAWrYg_draw 800ms ease-in-out 346ms forwards;}.XUKAWrYg_53{stroke-dasharray:153 155;stroke-dashoffset:154;animation:XUKAWrYg_draw 800ms ease-in-out 353ms forwards;}.XUKAWrYg_54{stroke-dasharray:156 158;stroke-dashoffset:157;animation:XUKAWrYg_draw 800ms ease-in-out 360ms forwards;}.XUKAWrYg_55{stroke-dasharray:161 163;stroke-dashoffset:162;animation:XUKAWrYg_draw 800ms ease-in-out 366ms forwards;}.XUKAWrYg_56{stroke-dasharray:172 174;stroke-dashoffset:173;animation:XUKAWrYg_draw 800ms ease-in-out 373ms forwards;}.XUKAWrYg_57{stroke-dasharray:62 64;stroke-dashoffset:63;animation:XUKAWrYg_draw 800ms ease-in-out 380ms forwards;}.XUKAWrYg_58{stroke-dasharray:62 64;stroke-dashoffset:63;animation:XUKAWrYg_draw 800ms ease-in-out 386ms forwards;}.XUKAWrYg_59{stroke-dasharray:62 64;stroke-dashoffset:63;animation:XUKAWrYg_draw 800ms ease-in-out 393ms forwards;}.XUKAWrYg_60{stroke-dasharray:62 64;stroke-dashoffset:63;animation:XUKAWrYg_draw 800ms ease-in-out 400ms forwards;}@keyframes XUKAWrYg_draw{100%{stroke-dashoffset:0;}}@keyframes XUKAWrYg_fade{0%{stroke-opacity:1;}92.5925925925926%{stroke-opacity:1;}100%{stroke-opacity:0;}}</style></svg>
