<svg width="237" height="22" viewBox="0 0 237 22" version="1.1" xmlns="http://www.w3.org/2000/svg" fill-rule="evenodd" clip-rule="evenodd" stroke-linejoin="round" stroke-miterlimit="1.414">
  <path d="M7.78 1.415H.004V-.004h17.128v1.42H9.356v20.181H7.78V1.415zM40.15-.004v21.601h-1.573V11.323H24.134v10.274h-1.572v-21.6h1.572v9.935h14.443V-.004h1.572zM62.585 20.179v1.418H47.68v-21.6h14.442v1.418h-12.87v8.517h11.511v1.39h-11.51v8.857h13.33zM84.186-.004h1.572v21.601h-1.572zM110.88-.004v21.601h-1.296L94.862 2.837v18.76H93.29v-21.6h1.327l14.688 18.76V-.003h1.575zM122.545 1.415h-7.777V-.004h17.126v1.42h-7.777v20.181h-1.572V1.415zM150.686 20.179v1.418h-14.904v-21.6h14.443v1.418h-12.87v8.517h11.51v1.39h-11.51v8.857h13.331zM171.424 21.597l-5.153-7.22c-.76.102-1.461.153-2.1.153h-6.17v7.067h-1.575v-21.6h7.745c2.718 0 4.846.643 6.39 1.928 1.541 1.285 2.313 3.07 2.313 5.353 0 1.709-.436 3.144-1.31 4.307-.875 1.162-2.125 1.98-3.75 2.452l5.399 7.56h-1.789zm-7.253-8.454c2.305 0 4.065-.51 5.279-1.527 1.213-1.02 1.82-2.464 1.82-4.338 0-1.872-.607-3.316-1.82-4.336-1.214-1.017-2.974-1.527-5.279-1.527h-6.17v11.728h6.17zM196.235-.004v21.601h-1.296l-14.721-18.76v18.76h-1.573v-21.6h1.328l14.687 18.76V-.003h1.575zM218.668 20.179v1.418h-14.904v-21.6h14.443v1.418h-12.87v8.517h11.51v1.39h-11.51v8.857h13.331zM228.544 1.415h-7.777V-.004h17.126v1.42h-7.776v20.181h-1.573V1.415z" fill="#fff" fill-rule="nonzero"/>
</svg>
